<svg width="17" height="17" viewBox="0 0 17 17" fill="none" xmlns="http://www.w3.org/2000/svg">
  <path d="M14.5 7.5C14.5 11.366 11.366 14.5 7.5 14.5C3.63401 14.5 0.5 11.366 0.5 7.5C0.5 3.63401 3.63401 0.5 7.5 0.5C11.366 0.5 14.5 3.63401 14.5 7.5Z" stroke="currentColor" stroke-miterlimit="10"/>
  <path d="M13.3536 12.6464L13 12.2929L12.2929 13L12.6464 13.3536L13.3536 12.6464ZM15.6464 16.3536C15.8417 16.5488 16.1583 16.5488 16.3536 16.3536C16.5488 16.1583 16.5488 15.8417 16.3536 15.6464L15.6464 16.3536ZM12.6464 13.3536L15.6464 16.3536L16.3536 15.6464L13.3536 12.6464L12.6464 13.3536Z" fill="currentColor"/>
</svg>