<svg width="12" height="10" viewBox="0 0 12 10" fill="none" xmlns="http://www.w3.org/2000/svg">
  <path d="M1 4.17057C0.723858 4.17057 0.5 4.39443 0.5 4.67057C0.5 4.94672 0.723858 5.17057 1 5.17057V4.17057ZM11 5.17057C11.2761 5.17057 11.5 4.94672 11.5 4.67057C11.5 4.39443 11.2761 4.17057 11 4.17057V5.17057ZM1 8.33724C0.723858 8.33724 0.5 8.5611 0.5 8.83724C0.5 9.11338 0.723858 9.33724 1 9.33724V8.33724ZM7.66667 9.33724C7.94281 9.33724 8.16667 9.11338 8.16667 8.83724C8.16667 8.5611 7.94281 8.33724 7.66667 8.33724V9.33724ZM1 0.00390625C0.723858 0.00390625 0.5 0.227764 0.5 0.503906C0.5 0.780049 0.723858 1.00391 1 1.00391V0.00390625ZM11 1.00391C11.2761 1.00391 11.5 0.780049 11.5 0.503906C11.5 0.227764 11.2761 0.00390625 11 0.00390625V1.00391ZM1 5.17057H11V4.17057H1V5.17057ZM1 9.33724H7.66667V8.33724H1V9.33724ZM1 1.00391H11V0.00390625H1V1.00391Z" fill="#1A1A1A"/>
</svg>