<svg width="24" height="24" viewBox="0 0 24 24" fill="none" xmlns="http://www.w3.org/2000/svg">
  <path d="M1.5 11.3C1.1134 11.3 0.8 11.6134 0.8 12C0.8 12.3866 1.1134 12.7 1.5 12.7V11.3ZM22.995 12.495C23.2683 12.2216 23.2683 11.7784 22.995 11.505L18.5402 7.05025C18.2668 6.77689 17.8236 6.77689 17.5503 7.05025C17.2769 7.32362 17.2769 7.76684 17.5503 8.0402L21.51 12L17.5503 15.9598C17.2769 16.2332 17.2769 16.6764 17.5503 16.9497C17.8236 17.2231 18.2668 17.2231 18.5402 16.9497L22.995 12.495ZM1.5 12.7H22.5V11.3H1.5V12.7Z" fill="currentColor"/>
</svg>