<svg xmlns="http://www.w3.org/2000/svg" viewBox="0 0 16 16" fill="none">
  <path d="M8.00073 1C6.10032 1 5.86113 1.00875 5.11439 1.0423C4.3691 1.07584 3.86009 1.19398 3.41525 1.36754C2.95437 1.54693 2.56495 1.78612 2.17554 2.17408C1.78612 2.5635 1.54693 2.95437 1.36754 3.41379C1.19398 3.85863 1.07584 4.36764 1.0423 5.11293C1.00875 5.85967 1 6.09887 1 7.99927C1 9.89968 1.00875 10.1389 1.0423 10.8856C1.0773 11.6309 1.19398 12.1399 1.36754 12.5847C1.54693 13.0456 1.78612 13.435 2.17554 13.8245C2.56495 14.2139 2.95437 14.4531 3.41525 14.6325C3.86009 14.806 4.3691 14.9242 5.11439 14.9577C5.86113 14.9912 6.10032 15 8.00073 15C9.90114 15 10.1403 14.9912 10.8871 14.9577C11.6324 14.9242 12.1414 14.806 12.5877 14.6325C13.0485 14.4531 13.438 14.2139 13.8274 13.8245C14.2168 13.435 14.456 13.0442 14.6354 12.5847C14.8075 12.1399 14.9256 11.6309 14.9606 10.8856C14.9942 10.1389 15.0029 9.90114 15.0029 7.99927C15.0029 6.09741 14.9942 5.85967 14.9606 5.11293C14.9256 4.36764 14.8075 3.85863 14.6354 3.41379C14.456 2.95291 14.2168 2.5635 13.8274 2.17408C13.438 1.78467 13.0485 1.54547 12.5877 1.36754C12.1414 1.19398 11.6324 1.07584 10.8871 1.0423C10.1403 1.00875 9.90259 1 8.00073 1ZM7.37358 2.26159C7.56027 2.26159 7.76737 2.26159 8.00219 2.26159C9.87197 2.26159 10.0922 2.26888 10.8316 2.30243C11.5142 2.33306 11.8847 2.44828 12.1312 2.54308C12.4579 2.66997 12.6912 2.82165 12.9362 3.06667C13.1813 3.3117 13.333 3.54506 13.4598 3.87176C13.5561 4.11824 13.6699 4.4887 13.7005 5.17127C13.734 5.90926 13.7413 6.13095 13.7413 7.99927C13.7413 9.86759 13.734 10.0893 13.7005 10.8273C13.6699 11.5098 13.5546 11.8803 13.4598 12.1268C13.333 12.4535 13.1813 12.6854 12.9362 12.9304C12.6912 13.1754 12.4579 13.3271 12.1312 13.454C11.8847 13.5503 11.5142 13.664 10.8316 13.6947C10.0937 13.7282 9.87197 13.7355 8.00219 13.7355C6.13241 13.7355 5.91072 13.7282 5.17273 13.6947C4.49016 13.6626 4.1197 13.5488 3.87322 13.454C3.54652 13.3271 3.31316 13.1754 3.06813 12.9304C2.82311 12.6854 2.67142 12.452 2.54454 12.1253C2.44828 11.8788 2.33451 11.5084 2.30389 10.8258C2.27034 10.0878 2.26305 9.86613 2.26305 7.99635C2.26305 6.12658 2.27034 5.90634 2.30389 5.16835C2.33451 4.48578 2.44973 4.11532 2.54454 3.86884C2.67142 3.54214 2.82311 3.30878 3.06813 3.06376C3.31316 2.81873 3.54652 2.66705 3.87322 2.54016C4.1197 2.4439 4.49016 2.33014 5.17273 2.29805C5.81884 2.26888 6.06824 2.26013 7.37358 2.25867V2.26159ZM11.7388 3.424C11.275 3.424 10.8987 3.80029 10.8987 4.26409C10.8987 4.72789 11.275 5.10418 11.7388 5.10418C12.2026 5.10418 12.5789 4.72789 12.5789 4.26409C12.5789 3.80029 12.2026 3.424 11.7388 3.424ZM8.00073 4.40556C6.01573 4.40556 4.40556 6.01573 4.40556 8.00073C4.40556 9.98573 6.01573 11.5959 8.00073 11.5959C9.98573 11.5959 11.5959 9.98719 11.5959 8.00073C11.5959 6.01427 9.98719 4.40556 8.00073 4.40556ZM8.00073 5.66715C9.29003 5.66715 10.3343 6.71143 10.3343 8.00073C10.3343 9.29003 9.29003 10.3343 8.00073 10.3343C6.71143 10.3343 5.66715 9.29003 5.66715 8.00073C5.66715 6.71143 6.71143 5.66715 8.00073 5.66715Z" fill="currentColor"/>
</svg>