<svg xmlns="http://www.w3.org/2000/svg" viewBox="0 0 14 14" fill="none">
  <path d="M7.28448 1.4021L12.2484 1.4021C12.4417 1.4021 12.5984 1.5588 12.5984 1.7521L12.5984 6.71597C12.5984 6.90162 12.5246 7.07967 12.3933 7.21094L7.48951 12.1148C7.21614 12.3881 6.77292 12.3881 6.49956 12.1148L1.88569 7.50089C1.61232 7.22753 1.61232 6.78431 1.88569 6.51094L6.78951 1.60713C6.92078 1.47585 7.09883 1.4021 7.28448 1.4021Z" stroke="currentColor" stroke-linecap="round" stroke-linejoin="round"/>
  <path d="M9.80026 4.90019C9.80026 5.28679 9.48686 5.60019 9.10026 5.60019C8.71366 5.60019 8.40026 5.28679 8.40026 4.90019C8.40026 4.51359 8.71366 4.20019 9.10026 4.20019C9.48686 4.20019 9.80026 4.51359 9.80026 4.90019Z" stroke="currentColor" stroke-linecap="round" stroke-linejoin="round"/>
  <path d="M9.10243 4.89769H9.09776V4.90269H9.10243V4.89769Z" stroke="currentColor" stroke-linecap="round" stroke-linejoin="round"/>
</svg>