<svg xmlns="http://www.w3.org/2000/svg" width="18" height="13" viewBox="0 0 18 13" fill="none">
  <path d="M17.0733 7.59259L16.5724 7.46452L15.9596 4.96573C15.9303 4.84583 15.8237 4.75864 15.7011 4.75864H12.7036V1.04179C12.7036 0.900093 12.5917 0.785645 12.4531 0.785645H0.974671C0.83612 0.785645 0.724213 0.900093 0.724213 1.04179V10.3475C0.724213 10.4892 0.83612 10.6037 0.974671 10.6037H2.4641C2.4641 10.6037 2.4641 10.6091 2.4641 10.6146C2.4641 11.4975 3.16752 12.2169 4.0308 12.2169C4.89408 12.2169 5.5975 11.4975 5.5975 10.6146C5.5975 10.6118 5.5975 10.6091 5.5975 10.6037H12.3759C12.4025 10.6118 12.4265 10.62 12.4558 10.62H13.1006C13.1033 11.5002 13.804 12.2141 14.6646 12.2141C15.5253 12.2141 16.226 11.5002 16.2287 10.62H17.0094C17.1559 10.62 17.2758 10.4974 17.2758 10.3475V7.85691C17.2758 7.73157 17.1932 7.62257 17.0733 7.59259ZM16.0102 7.41547H14.3422V5.3009H15.4933L16.0102 7.41547ZM4.0308 11.6691C3.46061 11.6691 2.99699 11.195 2.99699 10.6118C2.99699 10.0287 3.46061 9.55456 4.0308 9.55456C4.60099 9.55456 5.06461 10.0287 5.06461 10.6118C5.06461 11.195 4.60099 11.6691 4.0308 11.6691ZM4.0308 9.0123C3.34604 9.0123 2.76518 9.46464 2.55203 10.0914H1.22513V1.29794H12.2027V4.94938C12.1947 4.97391 12.1867 5.00116 12.1867 5.02841V10.0887H5.50957C5.29642 9.46192 4.71557 9.00957 4.0308 9.00957V9.0123ZM14.662 11.6691C14.0918 11.6691 13.6282 11.195 13.6282 10.6118C13.6282 10.0287 14.0918 9.55456 14.662 9.55456C15.2322 9.55456 15.6958 10.0287 15.6958 10.6118C15.6958 11.195 15.2322 11.6691 14.662 11.6691ZM16.7429 10.075H16.1354C15.9196 9.45647 15.3414 9.0123 14.662 9.0123C13.9825 9.0123 13.407 9.45647 13.1885 10.075H12.7196V5.30363H13.812V7.69069C13.812 7.84056 13.9319 7.96319 14.0785 7.96319H16.3219L16.7456 8.07219V10.0778L16.7429 10.075Z" fill="black"/>
</svg>