<svg xmlns="http://www.w3.org/2000/svg" viewBox="0 0 16 16" fill="none">
  <path d="M12.2186 4.2908C12.1311 4.24558 12.0459 4.19601 11.9634 4.14228C11.7234 3.98361 11.5033 3.79666 11.308 3.58545C10.8192 3.0262 10.6367 2.45883 10.5694 2.06161H10.5721C10.5159 1.73188 10.5392 1.51855 10.5427 1.51855H8.31646V10.1269C8.31646 10.2425 8.31646 10.3567 8.31159 10.4696C8.31159 10.4836 8.31024 10.4966 8.30944 10.5117C8.30944 10.5179 8.30944 10.5244 8.30809 10.5309C8.30809 10.5325 8.30809 10.5341 8.30809 10.5358C8.28463 10.8446 8.18561 11.143 8.01978 11.4046C7.85393 11.6662 7.62633 11.8831 7.35701 12.0361C7.07631 12.1958 6.75884 12.2796 6.43589 12.2791C5.39866 12.2791 4.55803 11.4334 4.55803 10.3889C4.55803 9.34435 5.39866 8.49858 6.43589 8.49858C6.63224 8.4984 6.82738 8.5293 7.01406 8.59011L7.01676 6.3234C6.45004 6.2502 5.87429 6.29523 5.32586 6.45566C4.77741 6.61611 4.26818 6.88848 3.83026 7.25558C3.44656 7.58896 3.12398 7.98676 2.87703 8.43106C2.78304 8.5931 2.42848 9.24416 2.38554 10.3008C2.35854 10.9006 2.53866 11.522 2.62453 11.7788V11.7842C2.67854 11.9354 2.88783 12.4514 3.22889 12.8865C3.50391 13.2354 3.82883 13.542 4.19321 13.7962V13.7908L4.19861 13.7962C5.27634 14.5286 6.47128 14.4805 6.47128 14.4805C6.67813 14.4722 7.37104 14.4805 8.15794 14.1076C9.03073 13.6942 9.52759 13.0782 9.52759 13.0782C9.84503 12.7102 10.0974 12.2907 10.274 11.8379C10.4754 11.3083 10.5427 10.6732 10.5427 10.4194V5.85245C10.5697 5.86865 10.9294 6.10655 10.9294 6.10655C10.9294 6.10655 11.4476 6.4387 12.2561 6.65501C12.8361 6.80893 13.6176 6.84133 13.6176 6.84133V4.63131C13.3438 4.66101 12.7878 4.57461 12.2186 4.2908Z" fill="currentColor"/>
</svg>