<svg xmlns="http://www.w3.org/2000/svg" width="14" height="14" viewBox="0 0 14 14" fill="none">
  <g clip-path="url(#clip0_2230_57734)">
    <circle cx="7" cy="7" r="7" fill="#006AFF"/>
    <path d="M4.70666 9.25044H9.29267C9.61264 9.25008 9.91934 9.12277 10.1455 8.89648C10.3717 8.67019 10.4988 8.36341 10.499 8.04347C10.4992 7.72354 10.3725 7.41658 10.1466 7.18997L9.50023 6.54233V5.4996C9.50023 4.83641 9.23679 4.20036 8.76785 3.7314C8.29887 3.26247 7.66292 2.99902 6.99965 2.99902C6.33638 2.99902 5.70041 3.26247 5.23145 3.7314C4.76252 4.20038 4.49908 4.83633 4.49908 5.4996V6.54233L3.85269 7.18871V7.18875C3.62625 7.41524 3.49902 7.7224 3.49902 8.0427C3.49902 8.363 3.62625 8.67016 3.85274 8.89665C4.07918 9.12313 4.38634 9.2504 4.70664 9.25044L4.70666 9.25044ZM4.56035 7.8964L5.49932 6.95747V5.49965C5.49932 4.96365 5.78526 4.46834 6.24948 4.20031C6.7137 3.9323 7.28559 3.9323 7.74981 4.20031C8.21402 4.46831 8.49997 4.96362 8.49997 5.49965V6.95747L9.44016 7.89766C9.47837 7.93677 9.49962 7.98935 9.49925 8.04401C9.49893 8.09867 9.47703 8.15097 9.43832 8.1896C9.39966 8.22818 9.34728 8.24999 9.29263 8.25024H4.70662C4.65176 8.24999 4.59921 8.22802 4.56052 8.18915C4.52181 8.15028 4.50004 8.0977 4.5 8.04283C4.49996 7.98797 4.52165 7.93531 4.56031 7.8964H4.56035Z" fill="white"/>
    <path d="M10.4097 8.04337C10.4099 7.7472 10.2926 7.46306 10.0835 7.25323L9.4373 6.60525L9.41114 6.57908V5.4994C9.41108 4.85997 9.15686 4.24656 8.70472 3.7944C8.25251 3.34227 7.63925 3.088 6.99972 3.08798C6.3602 3.08798 5.74692 3.34229 5.29472 3.7944C4.84258 4.24658 4.58836 4.85989 4.5883 5.4994V6.57908L3.9159 7.25149C3.70624 7.46118 3.58803 7.74596 3.58798 8.0425C3.58798 8.33912 3.70616 8.62378 3.9159 8.83352C4.1256 9.04325 4.4103 9.1614 4.70691 9.16143H9.29253V9.25039H4.70691L4.58743 9.24429C4.35032 9.22074 4.12544 9.12762 3.94119 8.97654L3.8531 8.89631C3.62662 8.66982 3.49902 8.3628 3.49902 8.0425C3.49907 7.76231 3.59686 7.4925 3.77287 7.27765L3.8531 7.1887L4.49935 6.54245V5.4994C4.49939 4.91909 4.7008 4.35968 5.06535 3.91475L5.23106 3.73161C5.70001 3.26267 6.33645 2.99902 6.99972 2.99902L7.24653 3.01123C7.81908 3.06801 8.35709 3.32126 8.76751 3.73161C9.2364 4.20051 9.50004 4.83628 9.50009 5.4994V6.54245L10.1463 7.18957C10.3722 7.41616 10.4989 7.72347 10.4987 8.04337C10.4985 8.36328 10.3716 8.67003 10.1455 8.89631C9.9193 9.1226 9.6125 9.25002 9.29253 9.25039V9.16143C9.58884 9.1611 9.87323 9.04307 10.0827 8.83352C10.2921 8.62397 10.4095 8.33962 10.4097 8.04337ZM8.49977 5.4994C8.49968 4.96346 8.21389 4.4679 7.74974 4.19993C7.28567 3.93211 6.71378 3.93215 6.24969 4.19993L6.08399 4.31069C5.71821 4.59233 5.49975 5.0304 5.49967 5.4994V6.95758L4.5604 7.89599C4.52181 7.93482 4.50027 7.98776 4.50022 8.0425L4.50371 8.08349C4.51166 8.12317 4.53145 8.1599 4.5604 8.18902C4.58936 8.21811 4.62627 8.23757 4.66592 8.24571L4.70691 8.25007H9.29253C9.3335 8.24988 9.37318 8.23759 9.40677 8.21518L9.43817 8.18989C9.4672 8.16093 9.48675 8.12394 9.49486 8.08436L9.49922 8.04425C9.49959 7.98959 9.47813 7.93684 9.43992 7.89773L8.49977 6.95758V5.4994ZM8.5896 6.92008L9.50358 7.83494H9.50445C9.55898 7.89077 9.5886 7.96618 9.58818 8.04425C9.58771 8.12233 9.55701 8.19748 9.50184 8.25268C9.44662 8.30778 9.37144 8.33945 9.2934 8.3399H4.70604C4.62763 8.3395 4.55291 8.30736 4.4976 8.25181C4.44227 8.19625 4.41045 8.121 4.41039 8.0425C4.41044 7.96417 4.44152 7.88876 4.49673 7.83319L4.52289 7.80703H4.52377L5.40984 6.92008V5.4994C5.40993 4.93159 5.71345 4.40714 6.20522 4.12319C6.697 3.83936 7.30245 3.83931 7.79422 4.12319C8.286 4.40711 8.58951 4.93156 8.5896 5.4994V6.92008Z" fill="#006AFF"/>
    <path d="M6.50012 10.0006C6.32145 10.0006 6.15633 10.0959 6.067 10.2507C5.97767 10.4054 5.97767 10.596 6.067 10.7508C6.15633 10.9055 6.32145 11.0008 6.50012 11.0008H7.50034C7.679 11.0008 7.84412 10.9055 7.93345 10.7508C8.02278 10.596 8.02278 10.4054 7.93345 10.2507C7.84412 10.0959 7.679 10.0006 7.50034 10.0006H6.50012Z" fill="white"/>
  </g>
  <defs>
    <clipPath id="clip0_2230_57734">
      <rect width="14" height="14" fill="white"/>
    </clipPath>
  </defs>
</svg>