<svg width="16" height="17" viewBox="0 0 16 17" fill="none" xmlns="http://www.w3.org/2000/svg">
  <path fill-rule="evenodd" clip-rule="evenodd" d="M8.99004 1.95417C8.47099 1.34861 7.52901 1.34861 7.00996 1.95417C6.65431 2.35788 6.09681 2.51167 5.58737 2.33865C4.82801 2.07913 4.0206 2.54051 3.8668 3.3287C3.77068 3.85736 3.35736 4.27068 2.8287 4.3668C2.04051 4.5206 1.57913 5.32801 1.83865 6.08737C2.01167 6.59681 1.86749 7.15431 1.45417 7.50996C0.84861 8.02901 0.84861 8.97099 1.45417 9.49004C1.85788 9.84569 2.01167 10.4032 1.83865 10.9126C1.57913 11.672 2.04051 12.4794 2.8287 12.6332C3.35736 12.7293 3.77068 13.1426 3.8668 13.6713C4.0206 14.4595 4.82801 14.9209 5.58737 14.6613C6.09681 14.4883 6.65431 14.6325 7.00996 15.0458C7.52901 15.6514 8.47099 15.6514 8.99004 15.0458C9.34569 14.6421 9.90319 14.4883 10.4126 14.6613C11.172 14.9209 11.9794 14.4595 12.1332 13.6713C12.2293 13.1426 12.6426 12.7293 13.1713 12.6332C13.9595 12.4794 14.4209 11.672 14.1613 10.9126C13.9883 10.4032 14.1325 9.84569 14.5458 9.49004C15.1514 8.97099 15.1514 8.02901 14.5458 7.50996C14.1421 7.15431 13.9883 6.59681 14.1613 6.08737C14.4209 5.32801 13.9595 4.5206 13.1713 4.3668C12.6426 4.27068 12.2293 3.85736 12.1332 3.3287C11.9794 2.54051 11.172 2.07913 10.4126 2.33865C9.90319 2.51167 9.34569 2.36749 8.99004 1.95417Z" fill="currentColor"/>
  <path fill-rule="evenodd" clip-rule="evenodd" d="M8 4.5C6.91343 4.5 6.02354 5.35119 6.02354 6.40244V8.02032H5.07317C5.03276 8.02032 5 8.05308 5 8.0935V11.8902C5 11.9307 5.03276 11.9634 5.07317 11.9634H10.9268C10.9672 11.9634 11 11.9307 11 11.8902V8.0935C11 8.05308 10.9672 8.02032 10.9268 8.02032H9.97646V6.40244C9.97646 5.35119 9.08657 4.5 8 4.5ZM6.46595 6.40244C6.46595 5.5919 7.14945 4.93089 8 4.93089C8.85055 4.93089 9.53405 5.5919 9.53405 6.40244V8.02032H6.46595V6.40244ZM5.43395 8.44309H10.5576V11.5325H5.43395V8.44309Z" fill="white"/>
</svg>