<svg xmlns="http://www.w3.org/2000/svg" width="167" height="24" viewBox="0 0 167 24" fill="none">
  <path d="M7.08091 23.0325C8.58089 23.6343 10.1492 23.9424 11.7388 23.9424L11.7489 23.9458C13.4751 23.9458 15.105 23.5861 16.5983 22.8745C17.3881 22.5081 18.3134 21.9132 19.3428 21.1053L19.4078 21.0537V17.1701H17.658L17.6446 17.3269C17.6099 17.727 17.5796 18.0149 17.546 18.1852C17.4441 18.7836 17.1808 19.2968 16.7663 19.7114C15.6147 20.8812 14.0117 21.4739 11.9953 21.4739C9.36392 21.4739 7.12908 20.6078 5.35241 18.9012C3.56566 17.1734 2.6594 15.0422 2.6594 12.1637C2.6594 9.28508 3.54438 6.92866 5.28744 5.15602C6.92408 3.49319 8.98865 2.65169 11.4318 2.65169C13.5647 2.65169 15.2148 3.26013 16.3328 4.46131C17.0229 5.20084 17.4642 6.21266 17.6446 7.46874L17.6648 7.61553L19.4045 7.61553V0.726669L17.6648 0.726669L17.378 2.65618C16.5882 1.92449 15.7313 1.37992 14.8149 1.03481C13.6532 0.589967 12.365 0.364746 10.9838 0.364746C7.92892 0.364746 5.35913 1.40794 3.33938 3.46854C1.1247 5.73308 0 8.67552 0 12.213C0 15.5521 1.07653 18.341 3.20495 20.4968C4.27476 21.5748 5.57646 22.4263 7.07979 23.0325H7.08091Z" fill="#000193"/>
  <path d="M29.1044 21.3513H27.2183L27.2183 12.7258L37.8 12.7258V21.3513L35.9643 21.3513V23.5881L42.2889 23.5881V21.3513H40.4376V2.98126H42.2889V0.744507L35.9643 0.744507V2.98126H37.8V10.4375L27.2183 10.4375V2.98126L29.1044 2.98126V0.744507L22.6465 0.744507V2.98126L24.5807 2.98126L24.5807 21.3513H22.6465V23.5881H29.1044V21.3513Z" fill="#000193"/>
  <path d="M60.6164 17.1892H58.9623L58.2869 21.358H51.2996V12.7806L57.1009 12.7806V10.657L51.2996 10.657V2.98574L58.2892 2.98574L58.9667 6.89138H60.6198V0.744507L46.793 0.744507V2.98126L48.6588 2.98126V21.3513H46.793V23.5881H60.6164V17.1892Z" fill="#000193"/>
  <path d="M70.9853 21.3484H69.1867V13.2027H70.1839L77.45 23.5881L81.093 23.5881V21.3518L79.0616 21.3518L73.1689 13.0358C74.9955 12.7828 76.4091 12.0403 77.3761 10.8298C78.2983 9.65058 78.7662 8.25526 78.7662 6.68525C78.7662 5.68635 78.5513 4.74681 78.1204 3.88789C77.6223 2.91699 76.9049 2.15438 75.986 1.62358C74.9518 1.04238 73.5181 0.744507 71.7251 0.744507L64.7188 0.744507V2.98082L66.552 2.98082V21.3473H64.7188V23.5836H70.9875V21.3473L70.9853 21.3484ZM69.1867 2.98642L71.4095 2.98642C72.5869 2.98642 73.5159 3.16112 74.1684 3.50939C75.4521 4.20704 76.0767 5.34256 76.0767 7.01784C76.0767 8.69311 75.4656 9.88686 74.2087 10.6629C73.4711 11.1176 72.3273 11.3471 70.8152 11.3471H69.1867V2.98642Z" fill="#000193"/>
  <path d="M115.106 21.1487H113.275V12.7133L123.128 23.3691L126.698 23.3691V21.1487H124.593L115.503 11.3858L122.966 4.04476C123.434 3.5933 123.799 3.3054 124.056 3.19337C124.367 3.0399 124.77 2.96372 125.262 2.96372H126.243V0.744507L119.291 0.744507V2.96484H120.251C120.78 2.97829 120.947 3.00629 120.982 3.01637C121.057 3.04662 121.07 3.08471 121.07 3.13624C121.07 3.14632 121.06 3.25275 120.78 3.53617L113.275 10.969V2.96372L115.106 2.96372V0.744507L108.865 0.744507V2.96484L110.696 2.96484V21.1499H108.865V23.3702H115.106V21.1499V21.1487Z" fill="#000193"/>
  <path d="M143.124 17.1892H141.471L140.794 21.358H133.806V12.7806L139.608 12.7806V10.657L133.806 10.657V2.98574L140.797 2.98574L141.474 6.89138H143.127V0.744507L129.3 0.744507V2.98126L131.169 2.98126V21.3513H129.3V23.5881H143.124V17.1892Z" fill="#000193"/>
  <path d="M161.048 17.1892H159.395L158.718 21.358H151.732V12.7806L157.532 12.7806V10.657L151.732 10.657V2.98574L158.722 2.98574L159.398 6.89138H161.051V0.744507L147.225 0.744507V2.98126L149.093 2.98126V21.3513H147.225V23.5881H161.048V17.1892Z" fill="#000193"/>
  <path d="M163.571 3.25058H163.827C163.895 3.25058 163.95 3.19595 163.95 3.12795V2.59733H164.178L164.399 3.16251C164.416 3.20376 164.46 3.25058 164.515 3.25058H164.794C164.839 3.25058 164.876 3.23051 164.897 3.19595C164.921 3.16139 164.924 3.11792 164.904 3.07667L164.676 2.55943C164.915 2.4368 165.038 2.23949 165.038 1.97418H165.041C165.041 1.54165 164.701 1.30756 164.377 1.30756L163.572 1.30756C163.504 1.30756 163.449 1.36218 163.449 1.43018V3.12907C163.449 3.19707 163.504 3.25169 163.572 3.25169L163.571 3.25058ZM163.935 1.79359H164.317C164.43 1.79359 164.505 1.87162 164.505 1.98087C164.505 2.09011 164.427 2.16815 164.317 2.16815H163.935V1.79359Z" fill="#000193"/>
  <path d="M164.156 4.15246C165.198 4.15246 166.052 3.30515 166.052 2.26196C166.052 1.21877 165.202 0.364746 164.156 0.364746C163.111 0.364746 162.264 1.21541 162.264 2.26196C162.264 3.3085 163.114 4.15246 164.156 4.15246ZM164.156 0.827017C164.948 0.827017 165.594 1.47285 165.594 2.26308C165.594 3.0533 164.948 3.69802 164.156 3.69802C163.365 3.69802 162.719 3.05218 162.719 2.26308C162.719 1.47397 163.364 0.827017 164.156 0.827017Z" fill="#000193"/>
  <path d="M84.7207 20.6447C87.3036 22.8812 90.4129 24 94.0049 24C97.597 24 100.698 22.8812 103.306 20.6447C106.07 18.2615 107.45 15.3822 107.45 12.0101C107.45 10.4299 107.12 8.91461 106.452 7.46206C105.632 5.69034 104.406 4.17172 102.768 2.91405C100.237 0.972095 97.3663 0 94.1584 0V0.00671955C92.1535 0.00671955 90.3255 0.338217 88.6745 0.994494C86.1801 1.97219 84.2122 3.46393 82.7673 5.4742C81.3224 7.46094 80.6011 9.65264 80.6011 12.047C80.6011 13.6575 80.9561 15.2063 81.6741 16.6947C82.3876 18.182 83.4024 19.499 84.7218 20.6447H84.7207ZM84.1091 8.55623C84.7106 7.12385 85.5988 5.89193 86.7749 4.85936C88.7944 3.08763 91.1723 2.20177 93.9086 2.20177L93.912 2.20513C96.7995 2.20513 99.2558 3.09099 101.275 4.86272C102.338 5.78217 103.165 6.87746 103.76 8.14858C104.354 9.41745 104.651 10.73 104.651 12.0818C104.651 13.1726 104.446 14.2432 104.036 15.2993C103.472 16.7317 102.618 17.9703 101.467 19.013C99.407 20.8765 96.9294 21.8072 94.0251 21.8072C91.1208 21.8072 88.6398 20.8765 86.5834 19.013C85.5719 18.1036 84.7901 17.0397 84.2323 15.8189C83.6757 14.5982 83.399 13.3394 83.399 12.047C83.399 10.8666 83.6342 9.70079 84.1091 8.55511V8.55623Z" fill="#000193"/>
  <path d="M7.08091 23.0325C8.58089 23.6343 10.1492 23.9424 11.7388 23.9424L11.7489 23.9458C13.4751 23.9458 15.105 23.5861 16.5983 22.8745C17.3881 22.5081 18.3134 21.9132 19.3428 21.1053L19.4078 21.0537V17.1701H17.658L17.6446 17.3269C17.6099 17.727 17.5796 18.0149 17.546 18.1852C17.4441 18.7836 17.1808 19.2968 16.7663 19.7114C15.6147 20.8812 14.0117 21.4739 11.9953 21.4739C9.36392 21.4739 7.12908 20.6078 5.35241 18.9012C3.56566 17.1734 2.6594 15.0422 2.6594 12.1637C2.6594 9.28508 3.54438 6.92866 5.28744 5.15602C6.92408 3.49319 8.98865 2.65169 11.4318 2.65169C13.5647 2.65169 15.2148 3.26013 16.3328 4.46131C17.0229 5.20084 17.4642 6.21266 17.6446 7.46874L17.6648 7.61553L19.4045 7.61553V0.726669L17.6648 0.726669L17.378 2.65618C16.5882 1.92449 15.7313 1.37992 14.8149 1.03481C13.6532 0.589967 12.365 0.364746 10.9838 0.364746C7.92892 0.364746 5.35913 1.40794 3.33938 3.46854C1.1247 5.73308 0 8.67552 0 12.213C0 15.5521 1.07653 18.341 3.20495 20.4968C4.27476 21.5748 5.57646 22.4263 7.07979 23.0325H7.08091Z" fill="#000193"/>
  <path d="M29.1044 21.3513H27.2183L27.2183 12.7258L37.8 12.7258V21.3513L35.9643 21.3513V23.5881L42.2889 23.5881V21.3513H40.4376V2.98126H42.2889V0.744507L35.9643 0.744507V2.98126H37.8V10.4375L27.2183 10.4375V2.98126L29.1044 2.98126V0.744507L22.6465 0.744507V2.98126L24.5807 2.98126L24.5807 21.3513H22.6465V23.5881H29.1044V21.3513Z" fill="#000193"/>
  <path d="M60.6164 17.1892H58.9623L58.2869 21.358H51.2996V12.7806L57.1009 12.7806V10.657L51.2996 10.657V2.98574L58.2892 2.98574L58.9667 6.89138H60.6198V0.744507L46.793 0.744507V2.98126L48.6588 2.98126V21.3513H46.793V23.5881H60.6164V17.1892Z" fill="#000193"/>
  <path d="M70.9853 21.3484H69.1867V13.2027H70.1839L77.45 23.5881L81.093 23.5881V21.3518L79.0616 21.3518L73.1689 13.0358C74.9955 12.7828 76.4091 12.0403 77.3761 10.8298C78.2983 9.65058 78.7662 8.25526 78.7662 6.68525C78.7662 5.68635 78.5513 4.74681 78.1204 3.88789C77.6223 2.91699 76.9049 2.15438 75.986 1.62358C74.9518 1.04238 73.5181 0.744507 71.7251 0.744507L64.7188 0.744507V2.98082L66.552 2.98082V21.3473H64.7188V23.5836H70.9875V21.3473L70.9853 21.3484ZM69.1867 2.98642L71.4095 2.98642C72.5869 2.98642 73.5159 3.16112 74.1684 3.50939C75.4521 4.20704 76.0767 5.34256 76.0767 7.01784C76.0767 8.69311 75.4656 9.88686 74.2087 10.6629C73.4711 11.1176 72.3273 11.3471 70.8152 11.3471H69.1867V2.98642Z" fill="#000193"/>
  <path d="M115.106 21.1487H113.275V12.7133L123.128 23.3691L126.698 23.3691V21.1487H124.593L115.503 11.3858L122.966 4.04476C123.434 3.5933 123.799 3.3054 124.056 3.19337C124.367 3.0399 124.77 2.96372 125.262 2.96372H126.243V0.744507L119.291 0.744507V2.96484H120.251C120.78 2.97829 120.947 3.00629 120.982 3.01637C121.057 3.04662 121.07 3.08471 121.07 3.13624C121.07 3.14632 121.06 3.25275 120.78 3.53617L113.275 10.969V2.96372L115.106 2.96372V0.744507L108.865 0.744507V2.96484L110.696 2.96484V21.1499H108.865V23.3702H115.106V21.1499V21.1487Z" fill="#000193"/>
  <path d="M143.124 17.1892H141.471L140.794 21.358H133.806V12.7806L139.608 12.7806V10.657L133.806 10.657V2.98574L140.797 2.98574L141.474 6.89138H143.127V0.744507L129.3 0.744507V2.98126L131.169 2.98126V21.3513H129.3V23.5881H143.124V17.1892Z" fill="#000193"/>
  <path d="M161.048 17.1892H159.395L158.718 21.358H151.732V12.7806L157.532 12.7806V10.657L151.732 10.657V2.98574L158.722 2.98574L159.398 6.89138H161.051V0.744507L147.225 0.744507V2.98126L149.093 2.98126V21.3513H147.225V23.5881H161.048V17.1892Z" fill="#000193"/>
  <path d="M163.571 3.25058H163.827C163.895 3.25058 163.95 3.19595 163.95 3.12795V2.59733H164.178L164.399 3.16251C164.416 3.20376 164.46 3.25058 164.515 3.25058H164.794C164.839 3.25058 164.876 3.23051 164.897 3.19595C164.921 3.16139 164.924 3.11792 164.904 3.07667L164.676 2.55943C164.915 2.4368 165.038 2.23949 165.038 1.97418H165.041C165.041 1.54165 164.701 1.30756 164.377 1.30756L163.572 1.30756C163.504 1.30756 163.449 1.36218 163.449 1.43018V3.12907C163.449 3.19707 163.504 3.25169 163.572 3.25169L163.571 3.25058ZM163.935 1.79359H164.317C164.43 1.79359 164.505 1.87162 164.505 1.98087C164.505 2.09011 164.427 2.16815 164.317 2.16815H163.935V1.79359Z" fill="#000193"/>
  <path d="M164.156 4.15246C165.198 4.15246 166.052 3.30515 166.052 2.26196C166.052 1.21877 165.202 0.364746 164.156 0.364746C163.111 0.364746 162.264 1.21541 162.264 2.26196C162.264 3.3085 163.114 4.15246 164.156 4.15246ZM164.156 0.827017C164.948 0.827017 165.594 1.47285 165.594 2.26308C165.594 3.0533 164.948 3.69802 164.156 3.69802C163.365 3.69802 162.719 3.05218 162.719 2.26308C162.719 1.47397 163.364 0.827017 164.156 0.827017Z" fill="#000193"/>
  <path d="M84.7207 20.6447C87.3036 22.8812 90.4129 24 94.0049 24C97.597 24 100.698 22.8812 103.306 20.6447C106.07 18.2615 107.45 15.3822 107.45 12.0101C107.45 10.4299 107.12 8.91461 106.452 7.46206C105.632 5.69034 104.406 4.17172 102.768 2.91405C100.237 0.972095 97.3663 0 94.1584 0V0.00671955C92.1535 0.00671955 90.3255 0.338217 88.6745 0.994494C86.1801 1.97219 84.2122 3.46393 82.7673 5.4742C81.3224 7.46094 80.6011 9.65264 80.6011 12.047C80.6011 13.6575 80.9561 15.2063 81.6741 16.6947C82.3876 18.182 83.4024 19.499 84.7218 20.6447H84.7207ZM84.1091 8.55623C84.7106 7.12385 85.5988 5.89193 86.7749 4.85936C88.7944 3.08763 91.1723 2.20177 93.9086 2.20177L93.912 2.20513C96.7995 2.20513 99.2558 3.09099 101.275 4.86272C102.338 5.78217 103.165 6.87746 103.76 8.14858C104.354 9.41745 104.651 10.73 104.651 12.0818C104.651 13.1726 104.446 14.2432 104.036 15.2993C103.472 16.7317 102.618 17.9703 101.467 19.013C99.407 20.8765 96.9294 21.8072 94.0251 21.8072C91.1208 21.8072 88.6398 20.8765 86.5834 19.013C85.5719 18.1036 84.7901 17.0397 84.2323 15.8189C83.6757 14.5982 83.399 13.3394 83.399 12.047C83.399 10.8666 83.6342 9.70079 84.1091 8.55511V8.55623Z" fill="#000193"/>
</svg>