
<svg xmlns="http://www.w3.org/2000/svg" fill="none" viewBox="0 0 167 24"><path fill="currentColor" d="M7.08 23.033c1.5.601 3.07.91 4.659.91l.01.003c1.726 0 3.356-.36 4.85-1.072.79-.366 1.714-.96 2.744-1.769l.065-.051V17.17h-1.75l-.013.157c-.035.4-.065.688-.099.858a2.77 2.77 0 0 1-.78 1.526c-1.151 1.17-2.754 1.763-4.77 1.763-2.632 0-4.867-.866-6.644-2.573-1.786-1.728-2.693-3.859-2.693-6.737s.885-5.235 2.628-7.008c1.637-1.663 3.702-2.504 6.145-2.504 2.133 0 3.783.608 4.9 1.81.69.739 1.132 1.75 1.313 3.007l.02.147h1.74V.726h-1.74l-.287 1.93c-.79-.732-1.647-1.276-2.563-1.621-1.162-.445-2.45-.67-3.831-.67-3.055 0-5.625 1.043-7.645 3.104C1.125 5.733 0 8.676 0 12.213c0 3.34 1.077 6.128 3.205 8.284 1.07 1.078 2.371 1.93 3.875 2.535M29.104 21.351h-1.886v-8.625H37.8v8.625h-1.836v2.237h6.325v-2.237h-1.851V2.981h1.85V.745h-6.324V2.98H37.8v7.457H27.218V2.98h1.886V.745h-6.457V2.98h1.934v18.37h-1.934v2.237h6.457zM60.616 17.19h-1.654l-.675 4.168H51.3v-8.577h5.8v-2.124h-5.8V2.986h6.99l.677 3.905h1.653V.745H46.793V2.98h1.866v18.37h-1.866v2.237h13.823zM70.985 21.348h-1.798v-8.145h.997l7.266 10.385h3.643v-2.236h-2.031l-5.893-8.316c1.827-.253 3.24-.996 4.207-2.206.922-1.18 1.39-2.575 1.39-4.145 0-.999-.215-1.938-.646-2.797a5.4 5.4 0 0 0-2.134-2.264c-1.034-.582-2.468-.88-4.26-.88h-7.007v2.237h1.833v18.366h-1.833v2.237h6.269v-2.237zM69.187 2.986h2.222c1.178 0 2.107.175 2.76.523 1.283.698 1.908 1.834 1.908 3.509s-.611 2.869-1.868 3.645c-.738.455-1.882.684-3.394.684h-1.628zM115.106 21.149h-1.831v-8.436l9.853 10.656h3.57v-2.22h-2.105l-9.09-9.763 7.463-7.341c.468-.452.833-.74 1.09-.852q.467-.23 1.206-.23h.981V.746h-6.952v2.22h.96c.529.013.696.041.731.051.075.03.088.069.088.12 0 .01-.01.117-.29.4l-7.505 7.433V2.964h1.831V.744h-6.241v2.22h1.831V21.15h-1.831v2.22h6.241zM143.123 17.19h-1.653l-.676 4.168h-6.988v-8.577h5.801v-2.124h-5.801V2.986h6.991l.676 3.905h1.654V.745H129.3V2.98h1.868v18.37H129.3v2.237h13.823zM161.048 17.19h-1.653l-.677 4.168h-6.986v-8.577h5.8v-2.124h-5.8V2.986h6.99l.676 3.905h1.653V.745h-13.826V2.98h1.868v18.37h-1.868v2.237h13.823zM163.571 3.25h.256a.123.123 0 0 0 .123-.122v-.53h.228l.221.565c.017.04.061.088.116.088h.279c.045 0 .082-.02.103-.055a.12.12 0 0 0 .007-.12l-.228-.517a.62.62 0 0 0 .362-.585h.003a.65.65 0 0 0-.664-.666h-.805a.123.123 0 0 0-.123.122v1.7c0 .067.055.122.123.122zm.364-1.456h.382c.113 0 .188.078.188.187a.18.18 0 0 1-.188.187h-.382z"/><path fill="currentColor" d="M164.157 4.152a1.897 1.897 0 0 0 1.895-1.89 1.9 1.9 0 0 0-1.895-1.897 1.895 1.895 0 0 0 0 3.787m0-3.325a1.44 1.44 0 0 1 1.437 1.436 1.44 1.44 0 0 1-1.437 1.435 1.44 1.44 0 0 1-1.438-1.435c0-.789.645-1.436 1.438-1.436M84.721 20.645C87.304 22.88 90.413 24 94.005 24q5.39 0 9.301-3.355 4.146-3.576 4.145-8.635.001-2.37-.998-4.548-1.23-2.66-3.684-4.548Q98.971.001 94.159 0v.007q-3.008.002-5.484.987-3.74 1.466-5.907 4.48-2.167 2.981-2.166 6.573-.002 2.416 1.073 4.648 1.069 2.23 3.047 3.95M84.11 8.556a10 10 0 0 1 2.665-3.697q3.03-2.657 7.134-2.657l.003.003q4.333 0 7.364 2.658a9.8 9.8 0 0 1 2.484 3.286 9.2 9.2 0 0 1 .892 3.933q0 1.634-.615 3.217a9.8 9.8 0 0 1-2.57 3.714c-2.06 1.863-4.537 2.794-7.441 2.794q-4.358.001-7.442-2.794a9.6 9.6 0 0 1-2.351-3.194 9 9 0 0 1-.834-3.772q0-1.771.71-3.492zM7.08 23.033c1.5.601 3.07.91 4.659.91l.01.003c1.726 0 3.356-.36 4.85-1.072.79-.366 1.714-.96 2.744-1.769l.065-.051V17.17h-1.75l-.013.157c-.035.4-.065.688-.099.858a2.77 2.77 0 0 1-.78 1.526c-1.151 1.17-2.754 1.763-4.77 1.763-2.632 0-4.867-.866-6.644-2.573-1.786-1.728-2.693-3.859-2.693-6.737s.885-5.235 2.628-7.008c1.637-1.663 3.702-2.504 6.145-2.504 2.133 0 3.783.608 4.9 1.81.69.739 1.132 1.75 1.313 3.007l.02.147h1.74V.726h-1.74l-.287 1.93c-.79-.732-1.647-1.276-2.563-1.621-1.162-.445-2.45-.67-3.831-.67-3.055 0-5.625 1.043-7.645 3.104C1.125 5.733 0 8.676 0 12.213c0 3.34 1.077 6.128 3.205 8.284 1.07 1.078 2.371 1.93 3.875 2.535M29.104 21.351h-1.886v-8.625H37.8v8.625h-1.836v2.237h6.325v-2.237h-1.851V2.981h1.85V.745h-6.324V2.98H37.8v7.457H27.218V2.98h1.886V.745h-6.457V2.98h1.934v18.37h-1.934v2.237h6.457zM60.616 17.19h-1.654l-.675 4.168H51.3v-8.577h5.8v-2.124h-5.8V2.986h6.99l.677 3.905h1.653V.745H46.793V2.98h1.866v18.37h-1.866v2.237h13.823zM70.985 21.348h-1.798v-8.145h.997l7.266 10.385h3.643v-2.236h-2.031l-5.893-8.316c1.827-.253 3.24-.996 4.207-2.206.922-1.18 1.39-2.575 1.39-4.145 0-.999-.215-1.938-.646-2.797a5.4 5.4 0 0 0-2.134-2.264c-1.034-.582-2.468-.88-4.26-.88h-7.007v2.237h1.833v18.366h-1.833v2.237h6.269v-2.237zM69.187 2.986h2.222c1.178 0 2.107.175 2.76.523 1.283.698 1.908 1.834 1.908 3.509s-.611 2.869-1.868 3.645c-.738.455-1.882.684-3.394.684h-1.628zM115.106 21.149h-1.831v-8.436l9.853 10.656h3.57v-2.22h-2.105l-9.09-9.763 7.463-7.341c.468-.452.833-.74 1.09-.852q.467-.23 1.206-.23h.981V.746h-6.952v2.22h.96c.529.013.696.041.731.051.075.03.088.069.088.12 0 .01-.01.117-.29.4l-7.505 7.433V2.964h1.831V.744h-6.241v2.22h1.831V21.15h-1.831v2.22h6.241zM143.123 17.19h-1.653l-.676 4.168h-6.988v-8.577h5.801v-2.124h-5.801V2.986h6.991l.676 3.905h1.654V.745H129.3V2.98h1.868v18.37H129.3v2.237h13.823zM161.048 17.19h-1.653l-.677 4.168h-6.986v-8.577h5.8v-2.124h-5.8V2.986h6.99l.676 3.905h1.653V.745h-13.826V2.98h1.868v18.37h-1.868v2.237h13.823z"/><path fill="currentColor" d="M163.571 3.25h.256a.123.123 0 0 0 .123-.122v-.53h.228l.221.565c.017.04.061.088.116.088h.279c.045 0 .082-.02.103-.055a.12.12 0 0 0 .007-.12l-.228-.517a.62.62 0 0 0 .362-.585h.003a.65.65 0 0 0-.664-.666h-.805a.123.123 0 0 0-.123.122v1.7c0 .067.055.122.123.122zm.364-1.456h.382c.113 0 .188.078.188.187a.18.18 0 0 1-.188.187h-.382z"/><path fill="currentColor" d="M164.157 4.152a1.897 1.897 0 0 0 1.895-1.89 1.9 1.9 0 0 0-1.895-1.897 1.895 1.895 0 0 0 0 3.787m0-3.325a1.44 1.44 0 0 1 1.437 1.436 1.44 1.44 0 0 1-1.437 1.435 1.44 1.44 0 0 1-1.438-1.435c0-.789.645-1.436 1.438-1.436M84.721 20.645C87.304 22.88 90.413 24 94.005 24q5.39 0 9.301-3.355 4.146-3.576 4.145-8.635.001-2.37-.998-4.548-1.23-2.66-3.684-4.548Q98.971.001 94.159 0v.007q-3.008.002-5.484.987-3.74 1.466-5.907 4.48-2.167 2.981-2.166 6.573-.002 2.416 1.073 4.648 1.069 2.23 3.047 3.95M84.11 8.556a10 10 0 0 1 2.665-3.697q3.03-2.657 7.134-2.657l.003.003q4.333 0 7.364 2.658a9.8 9.8 0 0 1 2.484 3.286 9.2 9.2 0 0 1 .892 3.933q0 1.634-.615 3.217a9.8 9.8 0 0 1-2.57 3.714c-2.06 1.863-4.537 2.794-7.441 2.794q-4.358.001-7.442-2.794a9.6 9.6 0 0 1-2.351-3.194 9 9 0 0 1-.834-3.772q0-1.771.71-3.492z"/></svg>